<svg width="436" height="490" xmlns="http://www.w3.org/2000/svg">
 <!-- Created with Method Draw - http://github.com/duopixel/Method-Draw/ -->
 <g>
  <title>background</title>
  <rect fill="#fff" id="canvas_background" height="492" width="438" y="-1" x="-1"/>
  <g display="none" overflow="visible" y="0" x="0" height="100%" width="100%" id="canvasGrid">
   <rect fill="url(#gridpattern)" stroke-width="0" y="0" x="0" height="100%" width="100%"/>
  </g>
 </g>
 <g>
  <title>Layer 1</title>
  <path id="svg_1" d="m298.71993,76.9638c-21.98244,-24.73726 -45.69172,-44.55335 -65.14064,-47.25489c-1.05879,-0.17523 -2.15539,-0.27745 -3.31501,-0.30666l-127.99984,0c-2.04195,0 -4.05869,0.91998 -5.49561,2.62852c-1.42432,1.66473 -2.26883,4.00119 -2.26883,6.38145l0,376.02389c0,2.36566 0.79409,4.62911 2.26883,6.35225c1.47474,1.69393 3.41585,2.61391 5.49561,2.61391l231.47111,0c2.04195,0 3.99566,-0.90538 5.4704,-2.61391c1.47474,-1.70854 2.29404,-3.97198 2.29404,-6.35225l0,-250.22017c-0.45377,-29.04511 -20.09175,-60.71873 -42.78006,-87.25215zm27.22596,328.43314l-215.94222,0l0,-358.03315l120.27321,0l0,0.02921c5.24352,-0.36507 9.76857,5.63671 13.23484,19.3634c3.15115,13.06957 3.94524,30.11112 3.93264,41.92484c0.02521,8.6595 -0.34032,14.47144 -0.34032,14.47144l-0.61763,9.52107l8.26863,0.10222c0.03781,0 19.10859,0.26285 37.81384,5.18402c17.97418,4.49768 32.02832,13.46385 33.3392,23.61284c0.05042,0.90538 0.06302,1.81076 0.05042,2.65772l0,241.16639l-0.0126,0z" stroke-width="1.5" stroke="#000" fill="#000000"/>
  <path id="svg_2" d="m246.10406,279.46615c-6.18765,-2.56677 -8.65833,-9.62115 -8.65833,-9.62115s-2.78772,1.59786 -2.78772,-2.88974s2.78772,2.88974 5.57544,-14.43739c0,0 7.72909,-2.24947 6.18765,-20.85148l-1.85848,0c0,0 4.64074,-19.88824 0,-26.62531c-4.6462,-6.73707 -6.49922,-11.22467 -16.7154,-14.43739s-6.49375,-2.57244 -13.92221,-2.2438c-7.42846,0.32297 -13.62157,4.4876 -13.62157,6.7314c0,0 -4.64074,0.32297 -6.49375,2.24947c-1.85848,1.9265 -4.95231,10.9017 -4.95231,13.15117s1.54691,17.32713 3.09382,20.53418l-1.84208,0.64028c-1.54691,18.60202 6.18765,20.85148 6.18765,20.85148c2.78226,17.32713 5.56998,9.94978 5.56998,14.43739s-2.78772,2.88974 -2.78772,2.88974s-2.47069,7.05437 -8.65833,9.62115c-6.18765,2.56111 -40.53675,16.35255 -43.32994,19.24229c-2.79319,2.89541 -2.47615,16.36388 -2.47615,16.36388l147.29555,0c0,0 0.3225,-13.46847 -2.47069,-16.36388c-2.79865,-2.88974 -37.14775,-16.68119 -43.3354,-19.24229zm-68.16252,-0.97458c-0.54115,-1.01991 -0.80899,-1.75651 -0.80899,-1.75651s-2.36136,1.35421 -2.36136,-2.44778s2.36136,2.44778 4.72273,-12.23325c0,0 6.55388,-1.90383 5.24201,-17.67277l-1.57424,0c0,0 0.78166,-3.3487 1.29547,-7.55866c-0.02186,-1.74518 0.0328,-3.60368 0.20225,-5.6435l0.20771,-2.41379c-0.11479,-2.78775 -0.58487,-5.32053 -1.70543,-6.94672c-3.93561,-5.70583 -5.50985,-9.51349 -14.16272,-12.23325c-8.65287,-2.71976 -5.50985,-2.18147 -11.80135,-1.90383c-6.29697,0.27198 -11.54445,3.802 -11.54445,5.71149c0,0 -3.93561,0.27198 -5.50985,1.90383c-1.48132,1.53553 -3.85361,8.28393 -4.13785,10.68072l0,1.59219c0.25691,3.70001 1.41026,13.87644 2.56361,16.27322l-1.56331,0.54395c-1.3064,15.76894 5.24201,17.67277 5.24201,17.67277c2.36136,14.68103 4.72273,8.43125 4.72273,12.23325s-2.36136,2.44778 -2.36136,2.44778s-2.09352,5.98914 -7.341,8.15361c-0.33343,0.13599 -0.75979,0.31731 -1.26814,0.52129l0,29.6567l3.14302,0c-0.15852,-7.24136 0.42089,-16.58486 4.07773,-20.36419c1.94594,-2.01149 8.3249,-5.32053 34.7208,-16.21656zm122.05847,-51.31278c-0.21864,-2.14181 -0.6942,-4.05131 -1.59611,-5.36019c-3.93014,-5.71149 -5.50985,-9.51349 -14.15725,-12.23325c-8.65833,-2.71976 -5.50985,-2.18147 -11.80682,-1.90383c-6.2915,0.27198 -11.53898,3.802 -11.53898,5.71149c0,0 -3.93014,0.27198 -5.50985,1.90383c-1.48132,1.5412 -3.87548,8.34059 -4.14332,10.71472l0.18038,0l0.43729,5.17321c0.10932,1.30888 0.12025,2.47045 0.14759,3.65468c0.49195,3.77367 1.14789,7.64932 1.80382,9.00354l-1.56331,0.54395c-1.3064,15.76894 5.24748,17.67277 5.24748,17.67277c2.36136,14.68103 4.71726,8.43125 4.71726,12.23325s-2.36136,2.44778 -2.36136,2.44778s-0.2897,0.8046 -0.89098,1.91516c26.07339,10.76571 32.3977,14.05209 34.32177,16.05791c3.6623,3.77933 4.23624,13.11717 4.07773,20.36419l2.62374,0l0,-30.06467c-0.08746,-0.034 -0.20771,-0.08499 -0.28424,-0.11899c-5.24201,-2.17014 -7.341,-8.15361 -7.341,-8.15361s-2.36683,1.35421 -2.36683,-2.44778s2.36683,2.44778 4.72273,-12.23325c0,0 4.39476,-1.29755 5.26387,-10.43141l0,-6.95238c-0.00547,-0.10199 -0.00547,-0.18698 -0.0164,-0.28897l-1.57971,0c0,0 1.17522,-5.04289 1.59611,-10.54473l0,-6.66341l0.0164,0z" stroke-opacity="null" stroke-width="1.5" stroke="#000" fill="#535F75"/>
  <path transform="rotate(-31.5213, -256.768, 176.105)" id="svg_4" d="m-256.76787,134.60539c-26.78601,0 -48.49998,18.58114 -48.49998,41.49852c0,7.8311 2.56705,15.14963 6.98358,21.40051l-6.98358,17.46862l19.44493,-5.69034c8.10288,5.19872 18.1425,8.32271 29.05505,8.32271c26.78599,0 48.50002,-18.58121 48.50002,-41.50149s-21.71403,-41.49852 -48.50002,-41.49852l0,0zm-7.95426,57.43505l-8.09963,9.23323l-22.27496,-25.41713l22.27164,-25.42309l8.10295,9.25435l-14.17207,16.16874l14.17207,16.1839zm24.49644,9.2212l-8.0963,-9.2453l14.17597,-16.16573l-14.17597,-16.17186l8.0963,-9.2453l22.27499,25.39902l-22.27499,25.42917z" stroke-opacity="null" stroke-width="1.5" stroke="#000" fill="#000000"/>
  <text font-style="normal" font-weight="bold" xml:space="preserve" text-anchor="start" font-family="Euphoria, sans-serif" font-size="76" id="svg_6" y="384" x="173.63333" stroke-opacity="null" stroke-width="0" stroke="#000" fill="#000000">DC</text>
  <path id="svg_7" d="m170.92008,152.79545c-6.38379,-1.40116 -10.0821,-7.16162 -9.64587,-12.38732c-0.16343,-6.82575 0.59773,-14.00817 -3.34727,-20.28437c-2.2486,-4.68606 -6.0791,-8.82343 -7.67763,-13.70682c-1.9892,-7.57624 0.46789,-16.16313 7.87122,-21.24935c8.34922,-5.91926 21.68229,-6.69077 30.87312,-1.65976c6.48236,3.69437 11.15954,9.78767 10.98578,16.43689c0.76063,4.96844 -1.60937,9.64169 -4.39742,13.91287c-1.99752,3.43903 -4.33033,6.80429 -6.14339,10.28167c-0.47797,7.12991 -0.20384,14.32523 -1.50028,21.39381c-2.15962,5.47734 -10.29841,9.20139 -17.01827,7.26237l0,0zm16.86054,-12.74841c-3.7886,-1.68965 -9.2328,-0.59112 -13.63649,-0.95488c-3.59724,0.5953 -9.98914,-1.22101 -11.9015,1.50354c4.37346,1.4155 9.51318,0.35442 14.16914,0.58861c3.72547,-0.29604 8.0117,0.28074 11.36886,-1.13727l0,0zm-0.28374,-3.17943c0.55755,-4.29271 -7.64696,-2.10222 -10.97995,-2.74125c-4.41142,0.73878 -11.4318,-1.58137 -14.20623,1.71686c1.64405,3.31447 8.97605,0.98344 12.82622,1.71884c4.10582,-0.12038 8.3654,0.12175 12.35996,-0.69445l0,0zm0.05108,-7.5212c1.0831,-8.36231 7.26277,-15.32499 10.84108,-22.97438c2.94205,-9.15852 -2.88459,-19.6217 -13.43366,-23.46605c-10.49998,-4.30561 -24.48935,-1.05298 -30.42324,7.38376c-5.71734,6.96897 -4.62623,16.43785 0.96176,23.21511c3.98717,5.92297 7.16831,12.57915 6.65012,19.47214c8.27643,0 16.55286,0 24.82929,0c0.19156,-1.21017 0.38306,-2.42043 0.57466,-3.63058zm-18.32263,-11.84713c-3.27915,-4.71744 -6.64545,-9.47123 -8.92889,-14.58378c2.05296,-2.19873 2.65018,-4.64789 3.28792,-7.23129c5.76204,-0.93644 -0.73344,5.43286 4.70675,5.57639c4.829,1.73837 2.71059,-8.43513 6.72261,-4.76807c-2.87997,4.02458 5.65702,8.02828 5.97034,2.27093c-0.41386,-4.34707 5.15999,-3.53261 2.98686,0.41108c0.17936,2.0287 4.17149,2.61031 4.23984,4.24197c-2.87394,5.15774 -5.372,10.4827 -8.77507,15.42035c-0.76599,-1.91172 3.01271,-6.70314 4.22016,-9.51644c2.32993,-2.43186 4.33206,-8.98552 -1.74192,-8.09219c-3.52344,4.54701 -8.26322,-2.86619 -11.71317,1.49143c-2.92864,0.72279 -7.53475,-4.19646 -8.38432,0.53349c2.20573,5.61797 6.79536,10.4059 9.19673,15.96587c-0.81485,-0.3975 -1.27885,-1.09487 -1.78784,-1.71975l0,0zm-4.60265,-20.58916c-1.59457,-0.6439 0.6721,3.42308 -0.00003,0l0.00003,0zm9.53071,0.48037c-2.06992,-2.8984 -0.95979,3.51666 0,0zm9.23796,0c-2.06992,-2.8984 -0.9598,3.51666 0,0zm-43.00703,-21.41665c-3.65854,-3.07212 -7.7026,-5.9548 -10.88432,-9.34112c7.94864,5.44392 15.2239,11.57493 22.38716,17.7213c1.90216,2.16264 -3.31844,-2.01955 -4.29008,-2.72058c-2.43114,-1.86289 -4.83044,-3.75409 -7.21276,-5.6596l0,0zm56.49514,8.78351c6.18382,-6.37499 11.95346,-13.05826 18.62053,-19.09366c-1.11639,2.59854 -4.71013,5.70788 -6.96974,8.38414c-3.77353,3.88429 -7.30079,7.9912 -11.61592,11.47384c-0.53857,0.471 -1.3428,-0.6446 -0.03482,-0.76433l-0.00005,0l0,0zm-13.3943,-6.04786c2.13656,-5.05628 5.23568,-9.86925 8.69319,-14.39451c-0.08036,2.51038 -3.7473,7.2684 -5.50986,10.38117c-0.99707,1.25261 -1.83807,3.25026 -3.18333,4.01333zm-27.36074,-6.48449c-1.48831,-1.79617 -5.96853,-5.9785 -5.13201,-6.54885c4.31951,3.96257 8.71279,8.05255 11.81571,12.73863c-2.64245,-1.67681 -4.54381,-4.09867 -6.68371,-6.18977l0,0zm17.10512,-1.4136c-0.30121,-1.68685 0.63384,-9.73949 1.15331,-4.27158c0.00185,3.4259 0.43405,7.28262 -0.71848,10.40083c-0.49354,-2.00476 -0.3738,-4.09184 -0.43483,-6.12925z" stroke-opacity="null" stroke-width="1.5" stroke="#000" fill="#000000"/>
 </g>
</svg>